<?xml version="1.0" encoding="utf-8"?>
<!-- Generator: Adobe Illustrator 23.0.3, SVG Export Plug-In . SVG Version: 6.00 Build 0)  -->
<svg version="1.1" id="Icons" xmlns="http://www.w3.org/2000/svg" xmlns:xlink="http://www.w3.org/1999/xlink" x="0px" y="0px"
	 viewBox="0 0 32 32" style="enable-background:new 0 0 32 32;" xml:space="preserve">
<style type="text/css">
	.st0{fill:none;stroke:#000000;stroke-width:2;stroke-linecap:round;stroke-linejoin:round;stroke-miterlimit:10;}
</style>
<path class="st0" d="M9.1,8.9C6,10.9,4,14.1,4,17.4C4,22.7,9.4,26,16,26s12-3.3,12-8.6c0-3.2-2-6.4-5.1-8.5
	c-2.3-1.5-4.5-3.2-6.3-5.3L16,3"/>
<path class="st0" d="M16.4,3.7L16,3l-0.4,0.7c-1.2,2-2.7,3.7-4.2,5.3c-2.1,2-3.4,5.2-3.4,8.5c0,5.3,3.6,8.6,8,8.6s8-3.3,8-8.6
	c0-3.2-1.3-6.4-3.4-8.5C19.1,7.4,17.6,5.7,16.4,3.7z"/>
<path class="st0" d="M16.1,3.7L16,3l-0.1,0.7c-0.5,2-1,3.7-1.6,5.3c-0.8,2-1.3,5.2-1.3,8.5c0,5.3,1.3,8.6,3,8.6s3-3.3,3-8.6
	c0-3.2-0.5-6.4-1.3-8.5C17.1,7.4,16.6,5.7,16.1,3.7z"/>
<line class="st0" x1="16" y1="30" x2="16" y2="26"/>
<line class="st0" x1="19" y1="29" x2="16" y2="26"/>
<line class="st0" x1="13" y1="29" x2="16" y2="26"/>
</svg>
